<svg xmlns="http://www.w3.org/2000/svg" viewBox="0 0 5600 2800"><defs><style>.cls-1,.cls-3{opacity:0.05;}.cls-2,.cls-3{fill:#26a9e0;}</style></defs><g id="Layer_2" data-name="Layer 2"><g id="Layer_1-2" data-name="Layer 1"><g class="cls-1"><path class="cls-2" d="M2800,88.89v5.42c.37-1.45.77-2.9,1.23-4.35Z"/><path class="cls-2" d="M1414.89,438.51a74.56,74.56,0,0,0,17.42-2.06l111.52,146.64a74.85,74.85,0,1,0,135,63.89,74.82,74.82,0,1,0-25.48-147.15L1541.87,353.19a74.85,74.85,0,1,0-135-63.89,74.82,74.82,0,0,0,8.06,149.21ZM1384.7,324a49.71,49.71,0,0,1,41.91-8.74,49.81,49.81,0,1,1,83.87,37.93L1645,530a49.82,49.82,0,1,1,14.14,91,49.81,49.81,0,1,1-83.87-37.92L1440.75,406.25a49.82,49.82,0,0,1-56-82.22Z"/><path class="cls-2" d="M731.9,2322.45a74.43,74.43,0,0,0-10.59-38.7,74.81,74.81,0,0,0-102.58-25.91,74.18,74.18,0,0,0-36,73.47l-158.23,94.42a74.71,74.71,0,0,0-81.67-3.28A74.84,74.84,0,0,0,346,2552.72a74.35,74.35,0,0,0,10.58,38.7,74.79,74.79,0,0,0,102.59,25.91,74.16,74.16,0,0,0,36-73.47l158.23-94.42a74.73,74.73,0,0,0,81.67,3.29,74.85,74.85,0,0,0-3.11-130.28Zm-9.7,108.81a49.83,49.83,0,0,1-65.44-13L466,2532.12a49.82,49.82,0,1,1-92,3.86,49.81,49.81,0,1,1,47.08-79.1l190.76-113.82a49.82,49.82,0,1,1,92-3.87,49.81,49.81,0,0,1,18.36,92.07Z"/><path class="cls-2" d="M407.64,549.31a74.38,74.38,0,0,0,40-2.2A74.85,74.85,0,1,0,543.39,432.4L583,252.47a74.82,74.82,0,0,0-14.77-148.18,74.27,74.27,0,0,0-23.93,4,74.52,74.52,0,0,0-35.46-18.82,74.83,74.83,0,0,0-89.15,57A74.18,74.18,0,0,0,448.57,223L409,402.89a74.82,74.82,0,0,0-1.34,146.42Zm-32.58-83.77a49.83,49.83,0,0,1,54.27-38.8l47.73-216.95a49.82,49.82,0,1,1,60.18-69.65,49.81,49.81,0,1,1,25.39,88.48l-47.73,217a49.82,49.82,0,1,1-60.18,69.65,49.81,49.81,0,0,1-79.66-49.68Z"/><path class="cls-2" d="M1610.59,975a74.31,74.31,0,0,0-52.81-22.16h-.3a74.23,74.23,0,0,0-68.39,44.37l-184.19-.78a74.18,74.18,0,0,0-68.36-45h-.3a74.84,74.84,0,0,0-64.24,113.2,74.83,74.83,0,0,0,63.62,113.74h.3a74.25,74.25,0,0,0,68.39-44.37l184.18.78a74.18,74.18,0,0,0,68.36,45h.31a74.84,74.84,0,0,0,64.23-113.2,74.78,74.78,0,0,0-10.8-91.58ZM1607,1105.21a49.82,49.82,0,0,1-99.39,4.73l-222.14-1a49.81,49.81,0,1,1-80.77-44.15,49.81,49.81,0,1,1,81.15-43.46l222.13,1a49.82,49.82,0,1,1,80.77,44.15A49.69,49.69,0,0,1,1607,1105.21Z"/><path class="cls-2" d="M1038.81,1526a74.4,74.4,0,0,0,13.7-37.7,74.83,74.83,0,1,0-68-133l-150-107a74.88,74.88,0,0,0-73.26-90.07,74.85,74.85,0,0,0-74.65,69.08,74.83,74.83,0,1,0,68,133l150,107a74.89,74.89,0,0,0,73.26,90.07A75,75,0,0,0,1038.81,1526Zm-20.35-14.52a49.82,49.82,0,0,1-83.89-53.5L753.72,1329a49.82,49.82,0,1,1-40.47-82.67,49.81,49.81,0,1,1,91.34,11.35l180.85,129a49.82,49.82,0,1,1,40.48,82.68A49.71,49.71,0,0,1,1018.46,1511.51Z"/><path class="cls-2" d="M267.3,1148a74.85,74.85,0,1,0,145.05-35.75L550.79,990.75a74.9,74.9,0,0,0,80.94-11.62A74.8,74.8,0,0,0,605,851.61a74.85,74.85,0,1,0-145,35.75L321.54,1008.89A74.82,74.82,0,1,0,267.3,1148ZM257.09,1039.3a49.83,49.83,0,0,1,66.71.88L490.73,893.63a49.82,49.82,0,1,1,89.74-20.5,49.82,49.82,0,1,1-31.94,86.34L381.59,1106a49.81,49.81,0,1,1-89.74,20.49,49.81,49.81,0,0,1-34.76-87.21Z"/><path class="cls-2" d="M721.72,1855.19A74.62,74.62,0,0,0,711,1856l-97.79-156.14A74.85,74.85,0,1,0,484.47,1624a74.82,74.82,0,1,0,12.06,148.84L594.32,1929A74.85,74.85,0,1,0,723,2004.81a74.82,74.82,0,0,0-1.31-149.62Zm26.49,117a49.7,49.7,0,0,1-42.53,4.91,49.81,49.81,0,1,1-80.1-45.36L507.67,1743.52a49.82,49.82,0,1,1-5.85-91.86,49.81,49.81,0,1,1,80.1,45.36l117.91,188.26a49.82,49.82,0,0,1,48.38,87Z"/><path class="cls-2" d="M1591.64,1843.66a74.52,74.52,0,0,0,29.41-27.28,74.85,74.85,0,1,0,.25-149.4l-84.56-163.66a74.83,74.83,0,1,0-122-86.19,74.85,74.85,0,1,0-.26,149.4l84.56,163.66a74.83,74.83,0,0,0,92.58,113.47ZM1530,1735.54l-102-197.35a49.82,49.82,0,1,1,1.75-92,49.82,49.82,0,1,1,76.09,51.82l102,197.35a49.82,49.82,0,1,1-1.76,92,49.81,49.81,0,1,1-76.08-51.81Z"/><path class="cls-2" d="M5355.54,331.15a74.87,74.87,0,0,0-25.25-88.71,74.85,74.85,0,1,0-148.92-11.93L5011.6,302a75.31,75.31,0,0,0-51.44-20.45,74.85,74.85,0,0,0-44,135.33,74.86,74.86,0,0,0,74.08,85.57h0a74.91,74.91,0,0,0,74.84-73.65l169.77-71.52a75.27,75.27,0,0,0,51.44,20.46,74.87,74.87,0,0,0,69.27-46.62Zm-50,17.7a49.82,49.82,0,0,1-63-21.93l-204.72,86.24a49.81,49.81,0,1,1-91.61-8.93,49.81,49.81,0,1,1,57.6-71.8l204.71-86.25a49.82,49.82,0,1,1,91.62,8.94,49.81,49.81,0,0,1,5.4,93.73Z"/><path class="cls-2" d="M4679.81,795.44a74.45,74.45,0,0,0-.35,40.11,74.86,74.86,0,1,0,108.46,102.76l177,50.86a74.94,74.94,0,0,0,74.21,64.77h0a74.85,74.85,0,0,0,72.23-94.28,74.85,74.85,0,1,0-108.45-102.75l-177-50.87a75,75,0,0,0-74.22-64.77A75.15,75.15,0,0,0,4679.81,795.44Zm24,6.9a49.82,49.82,0,0,1,96.93,22.49l213.5,61.35A49.82,49.82,0,1,1,5080,950.63a49.81,49.81,0,1,1-89.91,19.75L4776.57,909a49.82,49.82,0,1,1-65.71-64.46A49.71,49.71,0,0,1,4703.84,802.34Z"/><path class="cls-2" d="M3207.64,549.31a74.38,74.38,0,0,0,40-2.2,74.85,74.85,0,1,0,95.72-114.71L3383,252.47a74.82,74.82,0,0,0-14.77-148.18,74.27,74.27,0,0,0-23.93,4,74.52,74.52,0,0,0-35.46-18.82,74.83,74.83,0,0,0-89.15,57,74.18,74.18,0,0,0,28.9,76.53L3209,402.89a74.82,74.82,0,0,0-1.34,146.42Zm-32.58-83.77a49.83,49.83,0,0,1,54.27-38.8l47.73-216.95a49.82,49.82,0,1,1,60.18-69.65,49.81,49.81,0,1,1,25.39,88.48l-47.73,217a49.82,49.82,0,1,1-60.18,69.65,49.81,49.81,0,0,1-79.66-49.68Z"/><path class="cls-2" d="M5073.36,1645.74a74.82,74.82,0,0,0-69.6-102l-74-168.7a74.85,74.85,0,1,0-116.3-93.77,74.82,74.82,0,1,0-9.73,149l74,168.71A74.85,74.85,0,1,0,4994,1692.74a74.78,74.78,0,0,0,79.33-47Zm-92.47,17.1a49.82,49.82,0,1,1-72.65-56.54L4819,1402.88a49.81,49.81,0,1,1,7.58-91.73,49.81,49.81,0,1,1,72.65,56.53l89.24,203.42a49.82,49.82,0,1,1-7.58,91.74Z"/><path class="cls-2" d="M3645.21,671.17a74.85,74.85,0,0,0,68.73,104.28,76.67,76.67,0,0,0,10.37-.71A74.18,74.18,0,0,0,3786,721.06l182.44-25.37a74.85,74.85,0,1,0,121.86-86.41,74.85,74.85,0,1,0-140.83-49.89l-182.43,25.37a74.85,74.85,0,1,0-121.86,86.41Zm51.28-96.45a49.83,49.83,0,0,1,55.24,37.41l220-30.59A49.82,49.82,0,1,1,4058,613.78a49.81,49.81,0,1,1-74.16,54.54l-220,30.59a49.82,49.82,0,1,1-86.22-32.24,49.8,49.8,0,0,1,18.92-91.95Z"/><path class="cls-2" d="M3136.21,1225.57a74.85,74.85,0,1,0,141.58-47.7l127.85-132.62a74.92,74.92,0,0,0,79.69-18.32,74.8,74.8,0,0,0-37.21-124.85,74.85,74.85,0,1,0-141.58,47.69L3178.69,1082.4a74.82,74.82,0,1,0-42.48,143.17ZM3117,1118.06a49.82,49.82,0,0,1,66.54-4.67l154.17-159.93a49.82,49.82,0,1,1,87.73-27.89,49.81,49.81,0,1,1-24.65,88.69l-154.17,159.93a49.82,49.82,0,1,1-87.73,27.88,49.8,49.8,0,0,1-41.89-84Z"/><path class="cls-2" d="M5255.61,1954.92a75,75,0,0,0-18.24-2.26,74.11,74.11,0,0,0-21.83,3.29,74.85,74.85,0,1,0-99.06,111.84l-44.85,178.67a74.82,74.82,0,1,0,34.43,145.31,74.85,74.85,0,1,0,99-111.84L5250,2101.26a74.83,74.83,0,0,0,5.65-146.34Zm30.1,84.69a49.82,49.82,0,0,1-55.38,37.19l-54.09,215.45a49.82,49.82,0,1,1-62.2,67.86,49.81,49.81,0,1,1-22.77-89.19l54.08-215.45a49.82,49.82,0,1,1,62.2-67.86,49.8,49.8,0,0,1,78.16,52Z"/><path class="cls-2" d="M4271.3,2207.32a74.77,74.77,0,0,0-81.61,4.8l-159.95-91.44a74.92,74.92,0,0,0-74.41-82.67,74.87,74.87,0,0,0-74.86,76.58,74.84,74.84,0,0,0,36.39,140.19,75.27,75.27,0,0,0,44.53-14.67l159.94,91.44a74.9,74.9,0,0,0,74.42,82.66h0a74.86,74.86,0,0,0,74.86-76.58,74.83,74.83,0,0,0,.69-130.31Zm6.11,89.68a49.68,49.68,0,0,1-35.16,24.42,49.81,49.81,0,1,1-92-2.15L3957.37,2209a49.82,49.82,0,1,1-48.54-78.21,49.81,49.81,0,1,1,92,2.15l192.85,110.25a49.82,49.82,0,0,1,83.71,53.79Z"/><path class="cls-2" d="M81.48,667.49a74.36,74.36,0,0,0-4.28-57.11A74.32,74.32,0,0,0,33.79,573a74.47,74.47,0,0,0-23.37-3.76A75.61,75.61,0,0,0,0,570v25.4a49.81,49.81,0,1,1,0,97.41v79.44l17.65-53.67A74.27,74.27,0,0,0,81.48,667.49Z"/><path class="cls-2" d="M265.69,2028a74.88,74.88,0,0,0-81.1-10.47L44.44,1898a74.15,74.15,0,0,0-23.15-78.45A74.78,74.78,0,0,0,0,1806.77v28a51.8,51.8,0,0,1,5.07,3.79,49.82,49.82,0,0,1,8.71,66.14l169,144.16a49.82,49.82,0,1,1,33.16,85.87,49.81,49.81,0,1,1-90-19.21L0,2008.07v32.86l95.25,81.26a74.86,74.86,0,0,0,71.69,96.35h0a74.86,74.86,0,0,0,73.86-62.65A74.82,74.82,0,0,0,265.69,2028Z"/><path class="cls-2" d="M966,181.83a74.8,74.8,0,0,0,40.12,0A74.85,74.85,0,1,0,1108,72.62L1128.25,0h-26l-23.48,84.19a49.82,49.82,0,1,1-64,66.21,49.81,49.81,0,1,1-20.43-89.75L1011.34,0h-26l-10,35.69A74.83,74.83,0,0,0,966,181.83Z"/><path class="cls-2" d="M2695.83,1289.07a75,75,0,0,0,50.68,46.69l19.71,131.46,7.6,50.7a74.17,74.17,0,0,0-34,74.4,75.83,75.83,0,0,0,3.65,14.44h0a74.86,74.86,0,0,0,118.07,32.11,74.83,74.83,0,1,0,48.38-141.32l-11.71-78.13-15.6-104a74.15,74.15,0,0,0,34-74.4,74.75,74.75,0,0,0-85.08-62.89,74.44,74.44,0,0,0-36.64,16.35,74.83,74.83,0,0,0-102.71,80.19A75.83,75.83,0,0,0,2695.83,1289.07Zm63-74.8a49.73,49.73,0,0,1,41,12.48,49.81,49.81,0,1,1,55.32,73.57l19.16,127.78L2888,1520a49.82,49.82,0,1,1-31.32,86.56,49.81,49.81,0,1,1-55.32-73.57l-11.17-74.46-21.77-145.22a49.82,49.82,0,0,1-9.64-99Z"/><path class="cls-2" d="M1167,2549a74.8,74.8,0,0,0-40.12,0,74.85,74.85,0,1,0-101.91,109.24L985.38,2800h26l42.77-153.32a49.82,49.82,0,1,1,64-66.21,49.81,49.81,0,1,1,20.44,89.75L1102.29,2800h26l29.24-104.83A74.82,74.82,0,0,0,1167,2549Z"/><path class="cls-2" d="M2801.23,90c-.46,1.45-.86,2.9-1.23,4.35a73.94,73.94,0,0,0,0,36.53,74.92,74.92,0,0,0,146.35-5.39A74.8,74.8,0,0,0,2975.12,0h-105.7l20.24,17.7A49.82,49.82,0,1,1,2921.75,104,49.81,49.81,0,1,1,2832,83.64l-32-28L2736.36,0h-38L2800,88.89Z"/><path class="cls-2" d="M4527.23,17.93a74.87,74.87,0,0,0,74.21,84.68,74.94,74.94,0,0,0,74.85-74.55L4740.7,0h-62.6l-29.2,12.72a49.82,49.82,0,1,1-91.71-7.84A50.18,50.18,0,0,1,4545.61,0h-36.24A74.36,74.36,0,0,0,4527.23,17.93Z"/><path class="cls-2" d="M2155.69,2517.39a74.87,74.87,0,0,0,63-52.17l183-21a74.18,74.18,0,0,0,73.17,36.58,74.84,74.84,0,0,0,50.74-120,74.82,74.82,0,1,0-139.53-53.26l-58.63,6.71L2203,2328.5a74.89,74.89,0,0,0-119.36-13.29h0a74.87,74.87,0,0,0-4.54,96.75,74.81,74.81,0,0,0,76.56,105.42Zm-58-68.66a49.76,49.76,0,0,1,13.89-40.5A49.81,49.81,0,1,1,2187,2355.5l164.44-18.83,56.26-6.45a49.82,49.82,0,1,1,85.42,34.31,49.79,49.79,0,0,1-14.92,90.34A48.72,48.72,0,0,1,2472,2456a49.82,49.82,0,0,1-54.31-38.74L2197,2442.54a49.82,49.82,0,0,1-99.31,6.19Z"/><path class="cls-2" d="M3766,181.83a74.8,74.8,0,0,0,40.12,0A74.85,74.85,0,1,0,3908,72.62L3928.25,0h-26l-23.48,84.19a49.82,49.82,0,1,1-64,66.21,49.81,49.81,0,1,1-20.43-89.75L3811.34,0h-26l-10,35.69A74.83,74.83,0,0,0,3766,181.83Z"/><path class="cls-2" d="M5600,130.84V94.31A73.94,73.94,0,0,0,5600,130.84Z"/><path class="cls-2" d="M2923.58,2779.38a75.29,75.29,0,0,0-31.72,7L2800,2706.05l-46.79-40.93a74.85,74.85,0,1,0-145.12-35.49,74.82,74.82,0,1,0,54.49,139l35.81,31.33h38l-71.58-62.61a49.82,49.82,0,1,1-32.1-86.28,49.81,49.81,0,1,1,89.78,20.33l77.54,67.83,69.42,60.73h105.7c-.75-.72-1.51-1.43-2.3-2.11A74.79,74.79,0,0,0,2923.58,2779.38Z"/><path class="cls-2" d="M5515.81,1827.87a74.43,74.43,0,0,0-16.91,36.4,74.83,74.83,0,1,0,56.21,138.37l44.89,38.29v-32.86l-43.08-36.75a49.82,49.82,0,1,1-33.16-85.87,49.79,49.79,0,0,1,76.24-50.71v-28a74.77,74.77,0,0,0-84.19,21.1Z"/><path class="cls-2" d="M5560.35,548.88a74.85,74.85,0,0,0-73.43,126.75l-57.56,175a74.83,74.83,0,1,0,23.93,147.42,74.85,74.85,0,1,0,106.8-104.46L5600,772.26V692.82l-.18,0-69.41,211a49.82,49.82,0,1,1-66.9,63.22,49.81,49.81,0,1,1-16.32-90.59l69.41-211a49.82,49.82,0,1,1,66.91-63.22,50.1,50.1,0,0,1,16.49-6.78V570c-2.11.3-4.2.68-6.28,1.16A74.44,74.44,0,0,0,5560.35,548.88Z"/><path class="cls-2" d="M4939.25,2638.48a74.85,74.85,0,1,0-149.06-10.13l-168.91,73.57a75.4,75.4,0,0,0-50.76-19.85A74.84,74.84,0,0,0,4502,2786.78a75.28,75.28,0,0,0,7.42,13.22h36.24a49.81,49.81,0,1,1,68.31-67.61l203.66-88.7a49.82,49.82,0,1,1,91.72,7.83,49.81,49.81,0,1,1-56.74,72.49l-174.46,76h62.6l104.5-45.51a75.39,75.39,0,0,0,50.76,19.84,74.84,74.84,0,0,0,43.29-135.85Z"/><path class="cls-2" d="M3967,2549a74.8,74.8,0,0,0-40.12,0,74.85,74.85,0,1,0-101.91,109.24L3785.38,2800h26l42.77-153.32a49.82,49.82,0,1,1,63.95-66.21,49.81,49.81,0,1,1,20.44,89.75L3902.29,2800h26l29.24-104.83A74.82,74.82,0,0,0,3967,2549Z"/><path class="cls-2" d="M2722.46,2671.44a49.82,49.82,0,1,0-89.78-20.33,49.82,49.82,0,1,0,32.1,86.28l71.58,62.61h133.06L2800,2739.27Z"/><path class="cls-2" d="M2768.42,1313.31l21.77,145.22,11.17,74.46a49.82,49.82,0,1,0,55.32,73.57A49.81,49.81,0,1,0,2888,1520l-13.78-91.9-19.16-127.78a49.82,49.82,0,1,0-55.32-73.57,49.81,49.81,0,1,0-31.32,86.56Z"/><path class="cls-2" d="M249.46,2047a49.83,49.83,0,0,0-66.68,1.82l-169-144.16a49.82,49.82,0,0,0-8.71-66.14A51.8,51.8,0,0,0,0,1834.74v173.33l125.92,107.42a49.82,49.82,0,1,0,90,19.21A49.81,49.81,0,0,0,249.46,2047Z"/><path class="cls-2" d="M972.68,157.74a49.66,49.66,0,0,0,42.17-7.34,49.81,49.81,0,1,0,64-66.21L1102.29,0h-90.95L994.42,60.65a49.81,49.81,0,0,0-21.74,97.09Z"/><path class="cls-2" d="M1160.24,2573.12a49.72,49.72,0,0,0-42.18,7.35,49.81,49.81,0,1,0-64,66.21L1011.34,2800h90.95l36.21-129.78a49.82,49.82,0,0,0,21.74-97.1Z"/><path class="cls-2" d="M1440.75,406.25l134.47,176.82A49.81,49.81,0,1,0,1659.09,621,49.81,49.81,0,1,0,1645,530L1510.48,353.22a49.82,49.82,0,1,0-83.87-37.93,49.81,49.81,0,1,0,14.14,91Z"/><path class="cls-2" d="M703.84,2339.19a49.81,49.81,0,1,0-92,3.87L421.11,2456.88A49.82,49.82,0,1,0,374,2536a49.81,49.81,0,1,0,92-3.86l190.76-113.83a49.82,49.82,0,1,0,47.08-79.1Z"/><path class="cls-2" d="M413,524.9a49.73,49.73,0,0,0,41.71-9.68,49.81,49.81,0,1,0,60.18-69.65l47.73-216.95a49.82,49.82,0,1,0-25.39-88.48,49.81,49.81,0,1,0-60.18,69.65l-47.73,217A49.82,49.82,0,0,0,413,524.9Z"/><path class="cls-2" d="M1285.44,1109l222.14,1a49.82,49.82,0,1,0,81.14-43.46,49.81,49.81,0,1,0-80.77-44.15l-222.13-1a49.82,49.82,0,1,0-81.15,43.46,49.81,49.81,0,1,0,80.77,44.15Z"/><path class="cls-2" d="M1018.46,1511.51a49.71,49.71,0,0,0,7.46-42.15,49.82,49.82,0,1,0-40.48-82.68l-180.85-129a49.82,49.82,0,1,0-91.34-11.35A49.81,49.81,0,1,0,753.72,1329l180.85,129a49.82,49.82,0,0,0,83.89,53.5Z"/><path class="cls-2" d="M373.82,1172.27a49.81,49.81,0,0,0,7.77-66.25L548.53,959.47a49.82,49.82,0,1,0,31.94-86.34,49.81,49.81,0,1,0-89.74,20.5L323.8,1040.18a49.82,49.82,0,1,0-31.95,86.33,49.81,49.81,0,0,0,82,45.76Z"/><path class="cls-2" d="M699.83,1885.28,581.92,1697a49.82,49.82,0,1,0-80.1-45.36,49.81,49.81,0,1,0,5.85,91.86l117.91,188.26a49.82,49.82,0,1,0,80.1,45.36,49.81,49.81,0,1,0-5.85-91.86Z"/><path class="cls-2" d="M1580.16,1821.45a49.7,49.7,0,0,0,25.89-34.1,49.81,49.81,0,1,0,1.76-92l-102-197.35a49.82,49.82,0,1,0-76.09-51.82,49.81,49.81,0,1,0-1.75,92l102,197.35a49.82,49.82,0,0,0,50.19,85.91Z"/><path class="cls-2" d="M57.73,659.67A49.78,49.78,0,0,0,0,595.41v97.41A49.81,49.81,0,0,0,57.73,659.67Z"/><path class="cls-2" d="M5300.18,255.12a49.81,49.81,0,1,0-91.62-8.94l-204.71,86.25a49.81,49.81,0,1,0-57.6,71.8,49.81,49.81,0,1,0,91.61,8.93l204.72-86.24a49.82,49.82,0,1,0,57.6-71.8Z"/><path class="cls-2" d="M4716.62,938.28A49.81,49.81,0,0,0,4776.57,909l213.5,61.34A49.82,49.82,0,1,0,5080,950.63a49.81,49.81,0,1,0-65.71-64.45l-213.5-61.35a49.82,49.82,0,1,0-89.91,19.75,49.8,49.8,0,0,0,5.76,93.7Z"/><path class="cls-2" d="M3213,524.9a49.73,49.73,0,0,0,41.71-9.68,49.81,49.81,0,1,0,60.18-69.65l47.73-216.95a49.82,49.82,0,1,0-25.39-88.48,49.81,49.81,0,1,0-60.18,69.65l-47.73,217A49.82,49.82,0,0,0,3213,524.9Z"/><path class="cls-2" d="M5049.28,1598.54a49.81,49.81,0,0,0-60.81-27.44l-89.24-203.42a49.82,49.82,0,1,0-72.65-56.53,49.81,49.81,0,1,0-7.58,91.73l89.24,203.42a49.82,49.82,0,1,0,72.65,56.54,49.8,49.8,0,0,0,68.39-64.3Z"/><path class="cls-2" d="M3983.81,668.32A49.82,49.82,0,1,0,4058,613.78a49.81,49.81,0,1,0-86.22-32.24l-220,30.59a49.82,49.82,0,1,0-74.16,54.54,49.81,49.81,0,1,0,86.22,32.24Z"/><path class="cls-2" d="M3400.79,1014.26a49.82,49.82,0,1,0,24.65-88.69,49.82,49.82,0,1,0-87.73,27.89l-154.17,159.93a49.81,49.81,0,1,0-24.65,88.68,49.81,49.81,0,1,0,87.73-27.88Z"/><path class="cls-2" d="M5249.52,1979.16a49.72,49.72,0,0,0-42,8.45,49.81,49.81,0,1,0-62.2,67.86l-54.08,215.45a49.82,49.82,0,1,0,22.77,89.19,49.81,49.81,0,1,0,62.2-67.86l54.09-215.45a49.82,49.82,0,0,0,19.19-97.64Z"/><path class="cls-2" d="M4258.89,2229a49.83,49.83,0,0,0-65.19,14.18L4000.85,2133a49.81,49.81,0,1,0-92-2.15,49.81,49.81,0,1,0,48.54,78.21l192.85,110.25a49.82,49.82,0,1,0,92,2.15,49.81,49.81,0,0,0,16.64-92.39Z"/><path class="cls-2" d="M2832,83.64A49.82,49.82,0,1,0,2921.75,104a49.81,49.81,0,1,0-32.09-86.27L2869.42,0H2736.36L2800,55.67Z"/><path class="cls-2" d="M4555.74,47.67a49.82,49.82,0,0,0,93.16-34.95L4678.1,0H4545.61a50.18,50.18,0,0,0,11.58,4.88A49.7,49.7,0,0,0,4555.74,47.67Z"/><path class="cls-2" d="M5583.51,602.19a49.81,49.81,0,1,0-66.91,63.22l-69.41,211A49.82,49.82,0,1,0,5463.51,967a49.81,49.81,0,1,0,66.9-63.22l69.41-211,.18,0V595.41A50.1,50.1,0,0,0,5583.51,602.19Z"/><path class="cls-2" d="M5534.83,1844.09a49.71,49.71,0,0,0-11.07,41.36,49.81,49.81,0,1,0,33.16,85.87l43.08,36.75V1834.74A49.83,49.83,0,0,0,5534.83,1844.09Z"/><path class="cls-2" d="M2152.85,2492.55a49.81,49.81,0,0,0,44.14-50l220.7-25.28A49.82,49.82,0,0,0,2472,2456a48.72,48.72,0,0,0,6.22-1.13,49.79,49.79,0,0,0,14.92-90.34,49.81,49.81,0,1,0-85.42-34.31l-56.26,6.45L2187,2355.5a49.81,49.81,0,1,0-75.45,52.73,49.81,49.81,0,0,0,41.28,84.32Z"/><path class="cls-2" d="M3772.68,157.74a49.66,49.66,0,0,0,42.17-7.34,49.81,49.81,0,1,0,64-66.21L3902.29,0h-90.95l-16.92,60.65a49.81,49.81,0,0,0-21.74,97.09Z"/><path class="cls-2" d="M4909.3,2651.52a49.81,49.81,0,1,0-91.72-7.83l-203.66,88.7a49.82,49.82,0,1,0-68.31,67.61H4678.1l174.46-76a49.82,49.82,0,1,0,56.74-72.49Z"/><path class="cls-2" d="M3960.24,2573.12a49.72,49.72,0,0,0-42.18,7.35,49.81,49.81,0,1,0-63.95,66.21L3811.34,2800h90.95l36.21-129.78a49.82,49.82,0,0,0,21.74-97.1Z"/></g><g class="cls-1"><path class="cls-2" d="M1203.34,2261.77c26-57.05,18.5-141.36-25.81-168.17s-122.44,5.72-160.93,55.18c-54.21,69.66,36.77,74.54,70.21,94.77S1166.79,2342.11,1203.34,2261.77Z"/><ellipse class="cls-2" cx="1169.17" cy="1980.59" rx="66.62" ry="54.79" transform="translate(-1115.72 2243.19) rotate(-66)"/><ellipse class="cls-2" cx="1045.13" cy="2026.84" rx="57.95" ry="51.05" transform="translate(-1110.39 2771.22) rotate(-81.77)"/><ellipse class="cls-2" cx="1281.53" cy="2048.57" rx="66.62" ry="54.79" transform="translate(-1120.16 1782.43) rotate(-51.65)"/><ellipse class="cls-2" cx="1298.13" cy="2179.91" rx="57.95" ry="51.05" transform="translate(-1031.24 1174.32) rotate(-35.88)"/></g><g class="cls-1"><path class="cls-2" d="M2328,1664c-26.12-57-94.72-106.54-144-90.61s-75.86,96.29-63.68,157.77c17.16,86.57,80.42,21,117.61,9S2364.79,1744.23,2328,1664Z"/><ellipse class="cls-2" cx="2093.12" cy="1505.7" rx="54.79" ry="66.62" transform="translate(-441.03 1029.93) rotate(-25.1)"/><ellipse class="cls-2" cx="2046.84" cy="1629.74" rx="51.05" ry="57.95" transform="translate(-567.39 1736.62) rotate(-40.87)"/><ellipse class="cls-2" cx="2218.07" cy="1465.3" rx="54.79" ry="66.62" transform="translate(-234.25 439.11) rotate(-10.74)"/><ellipse class="cls-2" cx="2328.2" cy="1538.76" rx="57.95" ry="51.05" transform="translate(591.27 3723.1) rotate(-84.97)"/></g><g class="cls-1"><path class="cls-2" d="M2880.55,868.59c-7.83-62.18-58.4-130.05-110.19-129.62s-101.24,69.1-108.06,131.4c-9.61,87.74,70.41,44.17,109.49,43.85S2891.59,956.16,2880.55,868.59Z"/><ellipse class="cls-2" cx="2703.96" cy="647.14" rx="54.79" ry="66.62" transform="translate(-62.05 365.37) rotate(-7.64)"/><ellipse class="cls-2" cx="2622.62" cy="751.58" rx="51.05" ry="57.95" transform="matrix(0.92, -0.4, 0.4, 0.92, -82.7, 1104.08)"/><ellipse class="cls-2" cx="2835.28" cy="646.07" rx="66.62" ry="54.79" transform="translate(1862.3 3386.42) rotate(-83.29)"/><ellipse class="cls-2" cx="2918.31" cy="749.18" rx="57.95" ry="51.05" transform="translate(1110.09 3159.18) rotate(-67.52)"/></g><g class="cls-1"><path class="cls-2" d="M1167.24,573.32c-60.64-15.82-142.44,5.93-161.28,54.17s26.56,119.67,81.87,149.14c77.9,41.5,67.16-49,81.38-85.38S1252.65,595.6,1167.24,573.32Z"/><ellipse class="cls-2" cx="896.04" cy="655.03" rx="54.79" ry="66.62" transform="translate(41.72 1363.63) rotate(-75.84)"/><ellipse class="cls-2" cx="962.81" cy="769.35" rx="57.95" ry="51.05" transform="translate(-21.27 27.41) rotate(-1.61)"/><ellipse class="cls-2" cx="943.82" cy="532.71" rx="54.79" ry="66.62" transform="translate(25.18 1107.76) rotate(-61.49)"/><ellipse class="cls-2" cx="1070.39" cy="493.92" rx="51.05" ry="57.95" transform="translate(-30.57 915.32) rotate(-45.72)"/></g><g class="cls-1"><path class="cls-2" d="M3562.81,1348.34c53.13,33.25,137.68,37,170.1-3.41s10.47-122.13-33.48-166.81c-61.91-62.91-78.74,26.63-103.2,57.11S3488,1301.52,3562.81,1348.34Z"/><ellipse class="cls-2" cx="3846.04" cy="1351.54" rx="54.79" ry="66.62" transform="translate(680.81 3920.59) rotate(-58.43)"/><ellipse class="cls-2" cx="3816.54" cy="1222.48" rx="51.05" ry="57.95" transform="translate(1600.98 4561.9) rotate(-74.2)"/><ellipse class="cls-2" cx="3763.84" cy="1453.96" rx="54.79" ry="66.62" transform="translate(48.34 3027.33) rotate(-44.07)"/><ellipse class="cls-2" cx="3631.45" cy="1453.09" rx="51.05" ry="57.95" transform="translate(-254.85 1895.35) rotate(-28.3)"/></g><g class="cls-1"><path class="cls-2" d="M4371.53,341.65c3.43,62.58,49.1,133.84,100.78,137.07s105.87-61.8,117.06-123.46c15.76-86.84-67.12-49-106.13-51.46S4366.7,253.52,4371.53,341.65Z"/><ellipse class="cls-2" cx="4532.08" cy="575" rx="54.79" ry="66.62" transform="translate(-27.17 285.9) rotate(-3.6)"/><ellipse class="cls-2" cx="4620.58" cy="476.54" rx="51.05" ry="57.95" transform="translate(103.56 1559.79) rotate(-19.37)"/><ellipse class="cls-2" cx="4401.01" cy="566.81" rx="66.62" ry="54.79" transform="translate(3023.13 4784.83) rotate(-79.25)"/><ellipse class="cls-2" cx="4325.45" cy="458.11" rx="57.95" ry="51.05" transform="translate(1983.98 4123.75) rotate(-63.48)"/></g><g class="cls-1"><path class="cls-2" d="M4717.69,2264.9c14.1-61.07-9.95-142.21-58.7-159.69s-118.87,29.93-146.77,86.05c-39.28,79,50.85,65.75,87.64,78.94S4697.83,2350.9,4717.69,2264.9Z"/><ellipse class="cls-2" cx="4628.35" cy="1996.11" rx="66.62" ry="54.79" transform="translate(1674.96 6080.67) rotate(-77.46)"/><ellipse class="cls-2" cx="4515.96" cy="2066.08" rx="51.05" ry="57.95" transform="translate(-109.31 257.91) rotate(-3.23)"/><ellipse class="cls-2" cx="4751.97" cy="2040.42" rx="66.62" ry="54.79" transform="translate(782.73 5355.48) rotate(-63.11)"/><ellipse class="cls-2" cx="4794.33" cy="2165.84" rx="57.95" ry="51.05" transform="translate(-47.47 4223.39) rotate(-47.33)"/></g><g class="cls-1"><path class="cls-2" d="M3375.72,2369.64c-41.88,46.63-60.07,129.29-25.84,168.16s118.52,31.29,170.07-4.35c72.61-50.18-12.71-82.13-38.54-111.47S3434.68,2304,3375.72,2369.64Z"/><ellipse class="cls-2" cx="3323.94" cy="2648.11" rx="66.62" ry="54.79" transform="translate(-861.36 3385.92) rotate(-48.54)"/><ellipse class="cls-2" cx="3456.15" cy="2641.21" rx="57.95" ry="51.05" transform="translate(-422.12 4610.99) rotate(-64.31)"/><ellipse class="cls-2" cx="3237.16" cy="2549.55" rx="66.62" ry="54.79" transform="translate(-873.23 2259.48) rotate(-34.19)"/><ellipse class="cls-2" cx="3260.73" cy="2419.28" rx="57.95" ry="51.05" transform="translate(-597.28 1153.96) rotate(-18.42)"/></g><g class="cls-1"><path class="cls-2" d="M3014.81,2135.22a75.13,75.13,0,0,0,3.65-18,74,74,0,0,0-1.61-22A74.85,74.85,0,1,0,2913,1987.83l-174.69-58.45a74.83,74.83,0,0,0-145.48-16.88,75.12,75.12,0,0,0-3.65,18,73.92,73.92,0,0,0,1.61,22,74.85,74.85,0,1,0,103.89,107.36l174.69,58.45a74.83,74.83,0,0,0,145.48,16.88Zm-86.76,23.51a49.82,49.82,0,0,1-32.82-58.08l-210.66-70.49a49.82,49.82,0,1,1-62.88-67.23,49.82,49.82,0,1,1,90.68-15.86L2923,2017.56a49.82,49.82,0,1,1,62.87,67.23,49.81,49.81,0,0,1-57.85,73.94Z"/><path class="cls-2" d="M2991.1,2127.29a49.71,49.71,0,0,0-5.2-42.5,49.81,49.81,0,1,0-62.87-67.23l-210.66-70.49a49.82,49.82,0,1,0-90.68,15.86,49.81,49.81,0,1,0,62.88,67.23l210.66,70.49a49.82,49.82,0,0,0,95.87,26.64Z"/></g><g class="cls-1"><path class="cls-2" d="M1662.09,2232.6a74.87,74.87,0,0,0-87.52,97h0a74.87,74.87,0,0,0,63.68,50.43,74.82,74.82,0,1,0,134.26-65.37l109.87-147.89a74.85,74.85,0,1,0,23.83-147.49A74.82,74.82,0,1,0,1772,2084.71ZM1797,2018a49.81,49.81,0,0,1,89.75,27.55,49.81,49.81,0,1,1-13.12,91.11L1741.17,2315a49.82,49.82,0,1,1-83.45,38.86,49.81,49.81,0,1,1,13.12-91.11l132.47-178.31A49.84,49.84,0,0,1,1797,2018Z"/><path class="cls-2" d="M1741.17,2315l132.47-178.32a49.82,49.82,0,1,0,13.12-91.11,49.82,49.82,0,1,0-83.45,38.87l-132.47,178.31a49.82,49.82,0,1,0-13.12,91.11,49.81,49.81,0,1,0,83.45-38.86Z"/></g><g class="cls-1"><path class="cls-2" d="M1964.81,969.44a74.45,74.45,0,0,0-.35,40.11,74.86,74.86,0,1,0,108.46,102.76l177,50.86a74.94,74.94,0,0,0,74.22,64.77h0a74.85,74.85,0,0,0,72.23-94.28,74.85,74.85,0,1,0-108.45-102.75l-177-50.87a75,75,0,0,0-74.22-64.77A75.15,75.15,0,0,0,1964.81,969.44Zm24,6.9a49.82,49.82,0,0,1,96.93,22.49l213.5,61.35a49.82,49.82,0,1,1,65.71,64.45,49.81,49.81,0,1,1-89.91,19.75L2061.57,1083a49.82,49.82,0,1,1-65.71-64.46A49.71,49.71,0,0,1,1988.84,976.34Z"/><path class="cls-2" d="M2372,1166.87a49.71,49.71,0,0,0-7-42.24,49.81,49.81,0,1,0-65.71-64.45l-213.5-61.35a49.82,49.82,0,1,0-89.91,19.75,49.81,49.81,0,1,0,65.71,64.46l213.5,61.34a49.82,49.82,0,0,0,96.93,22.49Z"/></g><g class="cls-1"><path class="cls-2" d="M2507.5,388.25a74.9,74.9,0,0,0-38.11-84,74.85,74.85,0,1,0-149,10.27L2163,410.39a75.29,75.29,0,0,0-53.9-12.6,74.84,74.84,0,0,0-23.49,140.35,74.87,74.87,0,0,0,85.93,73.66h0a74.94,74.94,0,0,0,63.1-83.92L2392,432a75.29,75.29,0,0,0,53.9,12.61,74.9,74.9,0,0,0,61.6-56.36Zm-46.78,24.9a49.83,49.83,0,0,1-65.56-12.35L2205.48,516.41a49.82,49.82,0,1,1-91.93,4.73,49.81,49.81,0,1,1,46.33-79.54L2349.56,326a49.82,49.82,0,1,1,91.93-4.73,49.8,49.8,0,0,1,19.23,91.89Z"/><path class="cls-2" d="M2441.49,321.26a49.81,49.81,0,1,0-91.93,4.73L2159.88,441.6a49.82,49.82,0,1,0-46.33,79.54,49.81,49.81,0,1,0,91.93-4.73L2395.16,400.8a49.82,49.82,0,1,0,46.33-79.54Z"/></g><g class="cls-1"><path class="cls-2" d="M4230,833.83a74.32,74.32,0,0,0-38.4,42.49l-.1.28a74.24,74.24,0,0,0,19.22,79.23L4149,1129.36A74.18,74.18,0,0,0,4084,1179l-.1.29a74.83,74.83,0,0,0,85.53,98.09,74.84,74.84,0,0,0,128.4-22.36l.1-.28a74.25,74.25,0,0,0-19.23-79.23L4340.39,1002a74.2,74.2,0,0,0,65.06-49.62l.1-.28A74.85,74.85,0,0,0,4320,854a74.81,74.81,0,0,0-90-20.13Zm121.62,46.52a49.82,49.82,0,0,1-28.45,95.35L4248.74,1185a49.82,49.82,0,1,1-68.41,61.59,49.81,49.81,0,1,1-14.13-91l74.45-209.28a49.82,49.82,0,1,1,68.41-61.6A49.68,49.68,0,0,1,4351.64,880.35Z"/><path class="cls-2" d="M4107.51,1187.34a49.8,49.8,0,0,0,72.82,59.24,49.81,49.81,0,1,0,68.41-61.59l74.45-209.29a49.82,49.82,0,1,0-14.13-91,49.81,49.81,0,1,0-68.41,61.6l-74.45,209.28A49.83,49.83,0,0,0,4107.51,1187.34Z"/></g><g class="cls-1"><path class="cls-2" d="M4473.12,1612.86a74.52,74.52,0,0,0-27.73-29,74.85,74.85,0,1,0-149.39,2l-162.35,87a74.83,74.83,0,1,0-84.31,123.29,74.85,74.85,0,1,0,149.38-2l162.35-87.06a74.83,74.83,0,0,0,112.05-94.3ZM4366,1676.18l-195.77,105a49.82,49.82,0,1,1-92.05-.35,49.81,49.81,0,1,1,50.65-76.86l195.76-105a49.82,49.82,0,1,1,92.06.34,49.81,49.81,0,1,1-50.65,76.87Z"/><path class="cls-2" d="M4416.6,1599.31a49.81,49.81,0,1,0-92.06-.34l-195.76,105a49.82,49.82,0,1,0-50.65,76.86,49.81,49.81,0,1,0,92.05.35l195.77-105a49.82,49.82,0,1,0,50.65-76.87Z"/></g><path class="cls-3" d="M3551.72,1879.19a74.62,74.62,0,0,0-10.74.78l-97.79-156.14A74.85,74.85,0,1,0,3314.47,1648a74.82,74.82,0,1,0,12.06,148.84L3424.32,1953A74.85,74.85,0,1,0,3553,2028.81a74.82,74.82,0,0,0-1.31-149.62Zm26.49,117a49.7,49.7,0,0,1-42.53,4.91,49.81,49.81,0,1,1-80.1-45.36l-117.91-188.26a49.82,49.82,0,1,1-5.85-91.86,49.81,49.81,0,1,1,80.1,45.36l117.91,188.26a49.82,49.82,0,0,1,48.38,87Z"/><path class="cls-3" d="M3529.83,1909.28,3411.92,1721a49.82,49.82,0,1,0-80.1-45.36,49.81,49.81,0,1,0,5.85,91.86l117.91,188.26a49.82,49.82,0,1,0,80.1,45.36,49.81,49.81,0,1,0-5.85-91.86Z"/><path class="cls-3" d="M0,127.63a100.9,100.9,0,0,1,16.41-1.69c39.08,0,119.45,42.92,109.13-44.74C122.23,53.08,110.2,23.73,93.24,0H0Z"/><g class="cls-1"><path class="cls-2" d="M5600,2752.91c-22.51,6.05-43.83,23.88-60.43,47.09H5600Z"/><path class="cls-2" d="M5564.47,2723.39c16.1-4,28.67-16.42,35.53-32.67v-59.06c-11.3-28.17-37.34-44.88-63-38.43-29.41,7.41-47.12,42.56-39.54,78.5S5535.06,2730.81,5564.47,2723.39Z"/><path class="cls-2" d="M5433,2800h77.55c12-16.46,13.94-40.69,3.15-61.95-14.48-28.51-46.41-40.86-71.31-27.58s-33.34,47.15-18.86,75.67A64.7,64.7,0,0,0,5433,2800Z"/></g><path class="cls-3" d="M138,13.73C158.42,24.6,183.51,18.29,199.89,0H122.33A46.5,46.5,0,0,0,138,13.73Z"/><path class="cls-3" d="M1864.67,0H1687.52a89.08,89.08,0,0,1,2.75,12.93c4.72,38.8-28.17,123.76,57.6,102.92C1805.53,101.85,1863.93,49.2,1864.67,0Z"/><g class="cls-1"><path class="cls-2" d="M0,2800H93.24c-20.58-28.8-48.44-49.32-76.83-49.32A63.37,63.37,0,0,0,0,2752.91Z"/><path class="cls-2" d="M4,2644.9a79.27,79.27,0,0,0-4-13.24v59.06A77.4,77.4,0,0,0,4,2644.9Z"/><ellipse class="cls-2" cx="82.08" cy="2658.31" rx="66.62" ry="54.79" transform="translate(-2565.66 2407.62) rotate(-82.82)"/><path class="cls-2" d="M190.49,2710.47c-24.9-13.28-56.83-.93-71.31,27.58-10.79,21.26-8.84,45.49,3.15,61.95h77.56a64.66,64.66,0,0,0,9.46-13.86C223.84,2757.62,215.39,2723.74,190.49,2710.47Z"/><path class="cls-2" d="M1864.25,2791.75c-6.26-51.4-80.08-92.81-142.75-92.56-79.23.31-45.19,60.44-34,100.81h177.15A61.46,61.46,0,0,0,1864.25,2791.75Z"/><ellipse class="cls-2" cx="1948.01" cy="2715.42" rx="66.62" ry="54.79" transform="translate(-603.45 557.11) rotate(-14.12)"/><ellipse class="cls-2" cx="1835.05" cy="2646.37" rx="57.95" ry="51.05" transform="translate(-1074.64 1266.37) rotate(-29.89)"/><path class="cls-2" d="M1970.76,2791.29a77.69,77.69,0,0,0-43.58,8.71h73.19A76,76,0,0,0,1970.76,2791.29Z"/></g><path class="cls-3" d="M2000.37,0h-73.19c-16.06,8.71-27.42,23.05-29.57,40-3.8,30.09,22.78,57.06,59.38,60.24s69.34-18.65,73.14-48.74C2032.8,30.45,2020.53,10.91,2000.37,0Z"/><ellipse class="cls-3" cx="1870.78" cy="139.91" rx="51.05" ry="57.95" transform="translate(1220.33 1899.54) rotate(-73.99)"/><ellipse class="cls-3" cx="77.74" cy="1392.27" rx="54.79" ry="66.62" transform="translate(-1315.14 1458.18) rotate(-89.51)"/><path class="cls-3" d="M0,1246.3V1346c1.22-.35,2.44-.72,3.66-1.15,30.19-10.55,46.69-40.54,36.85-67C34.17,1260.84,18.45,1249.44,0,1246.3Z"/><path class="cls-3" d="M80.63,1471.43c-32.43-11.52-67.11-1-80.63,23.56v45c7.32,14.44,21.33,26.87,39.83,33.44,34.61,12.3,71.8-.56,83.07-28.72S115.24,1483.73,80.63,1471.43Z"/><path class="cls-3" d="M0,1611.61a49.33,49.33,0,0,0,0-31.91Z"/><g class="cls-1"><path class="cls-2" d="M5539.57,0c-17,23.73-29,53.08-32.29,81.2-9,76.66,51.3,53.46,92.72,46.43V0Z"/><path class="cls-2" d="M5494.79,13.73A46.5,46.5,0,0,0,5510.5,0H5433C5449.32,18.29,5474.41,24.6,5494.79,13.73Z"/><path class="cls-2" d="M5577.44,1445c6.91-51.32-54.09-110-114.8-125.56-85.5-21.92-53.68,63.45-58.89,102.19s-58.47,112.66,29.78,114.12C5496.2,1536.81,5570.53,1496.34,5577.44,1445Z"/><path class="cls-2" d="M5568,1249.09c-30.19,10.55-46.69,40.54-36.85,67,9.44,25.38,39.71,38.26,68.82,29.93V1246.3A64.19,64.19,0,0,0,5568,1249.09Z"/><path class="cls-2" d="M5597.56,1500.15c-5.25,13.11-3.94,27.23,2.44,39.82v-45A46.83,46.83,0,0,0,5597.56,1500.15Z"/><path class="cls-2" d="M5576.25,1548.56c-26.33-18.16-61-14.31-77.51,8.6s-8.5,56.2,17.83,74.35,61,14.31,77.51-8.6a44.94,44.94,0,0,0,5.92-11.3V1579.7A61.36,61.36,0,0,0,5576.25,1548.56Z"/></g></g></g></svg>