<svg xmlns="http://www.w3.org/2000/svg" viewBox="0 0 397.3 319.26"><defs><style>.cls-1{fill:#252526;}.cls-1,.cls-2,.cls-3,.cls-4{fill-rule:evenodd;}.cls-2{fill:#ffbd21;}.cls-3{fill:#262121;}.cls-4{fill:#313130;}</style></defs><g id="Layer_2" data-name="Layer 2"><g id="Layer_1-2" data-name="Layer 1"><path class="cls-1" d="M198.65,95.07c-10.31-7.56-14.69-29.8-39.73-29.8C143.44,65.27,122,76.43,122,90.81v4.26c0,8.52,8.5,17,17,17h7.09c11.79,0,32.48-9.55,49.66-9.94-1.88,3.93-4,17.94-5.87,23.93-3.56,11.37-4.61,11.52-9.05,20.75-6.26,13-15.2,26.27-33.32,26.27-27,0-45.55-14.67-58.57-29.4-6.8-7.69-13.86-15.64-18.52-25.47-5.24-11.07-3.9-28.85-16.56-28.85H49.66c-10,0-24.12,27.41-24.12,41.15v9.93c0,20.24,22.52,44,39.73,44A5.45,5.45,0,0,0,71,178.79c0-8.11-34.06-10.75-34.06-38.32v-9.93c0-9.93,9.42-27.76,17-29.8,0,34.2,51.36,83.72,86.55,83.72h7.1c19.4,0,31.9-12.43,39.73-24.12,16,10.7,37.07,36.89,65.27,36.89h15.61c4.44,0,4-2.54,5.75-5.71L271,185.88c-24.31,0-30.46-.83-46.27-10.49-5.16-3.15-30.36-22.1-30.36-26.4,0-.9,6.47-17.66,7.55-20.84,2.77-8.21,2.11-16.67,5.19-24.6,6.89-17.77,17.55-17.66,34.94-24.66,12-4.84,67.78-36.47,75.77-43.42,14.33,9.6,38.25,24.7,58.18,11.36A84.76,84.76,0,0,1,386,86.56v17c0,21.61-18.31,44.23-32.65,52.48-22.48,12.94-39.63,11.38-73.77,11.38-1.71,2.56-2.84,2.49-2.84,5.67a5.46,5.46,0,0,0,5.68,5.68h28.38c47.91,0,86.55-32.82,86.55-80.88V83.72c0-28.42-21.62-76.63-48.24-76.63h-2.84C340.6,7.09,280.28,44.3,271.3,50c-11.87,7.47-25,13.59-38.09,20.08C218.52,77.31,203.32,77.57,198.65,95.07Z"/><path class="cls-1" d="M195.81,256.83c-11.4,7.23-79,4.25-100.74,4.25-27.37,0-40.46,21.29-62.43,21.29-3.27,0-4.26-1-4.26-4.26,0-5.47,10.7-12.73,14.57-16.65,5-5.12,9.46-12.75,12.89-19.74,5.33-10.9,13.69-35,13.69-50.16,0-3.27-1-4.26-4.26-4.26H63.85c-3.18,0-3.11,1.12-5.67,2.84,0,14-9,40.81-14.2,49.65-4.75,8.11-6.43,11.27-13.81,17.41-4.78,4-13.14,11.69-13.14,19.49V281c0,7.65,7,12.77,14.19,12.77h5.67c20,0,34.49-21.28,61-21.28h5.67c46.64,0,86.12,4.72,118.86-12.44l30.11,31.17L187.3,288H136.22C112.61,288,9.93,299.39,9.93,313.58c0,2.75,2.53,5.68,4.26,5.68,3.25,0,46.06-11.35,57.58-13.36,18.7-3.28,45.56-6.5,65.87-6.5,58.46,0,111.82,4.58,171.19,10.45,5,.49,11.85,2.78,11.85-4.78,0-7.9-29-9.93-38.31-9.93v-8.52c0-13.12-12.77-36.84-12.77-56.75,0-9.41,5.67-14,5.67-18.45,0-1.73-2.93-4.26-5.67-4.26h-1.42c-22.69,0,2.17,72.87,2.84,80.88-13.46-3.13-40.54-39.73-46.83-39.73h-1.42C215.42,248.31,207,256.58,195.81,256.83Z"/><path class="cls-2" d="M266.76,113.51c1.46-6.27,5.14-11.35,12.77-11.35,5.27,0,8.76,4.12,9.93,8.52-8.78-4.22-16.8-.29-22.7,2.83Zm-18.45-4.25v5.67c0,15.61,15.61,31.22,31.22,31.22h4.26c13.71,0,31.21-14.58,31.21-27V106.42c0-14-17.42-28.38-32.63-28.38C265.74,78,248.31,92.79,248.31,109.26Z"/><path class="cls-3" d="M207.17,75.2c18.88-1.57,45.4-17.51,45.4-38.31V32.64C252.57,18,243.51,0,229.87,0,201.24,0,207.17,48.23,207.17,75.2Z"/><path class="cls-2" d="M95.07,261.08c21.78,0,89.34,3,100.74-4.25-6.79-2.74-6.46-28.38-31.21-28.38h-9.94c-6.91,0-18.38,7.21-19.86,12.77-6-.5-7.53-2.84-12.77-2.84C102.58,238.38,100.87,249,95.07,261.08Z"/><path class="cls-1" d="M0,249.73V254c0,4.36,4.16,5.68,8.51,5.68h4.26c6,0,17-2.7,17-8.52a5.45,5.45,0,0,0-5.68-5.67c-6.15,0-4.38,2.25-11.35,2.83C18.3,240.05,52.5,206,52.5,197.23v-1.42a5.45,5.45,0,0,0-5.67-5.67c-3.84,0-20.18,24.39-23.54,29C17.57,226.91,0,241.48,0,249.73Z"/><path class="cls-1" d="M275.27,222.77v1.42c0,4.39,27.12,29.64,29.8,41.15-4-2.1-15-8.51-19.86-8.51-3.27,0-4.26,1-4.26,4.25v1.42c0,5.75,18.22,14.19,24.12,14.19h7.1c3.68,0,7.09-5.06,7.09-7.09,0-10.2-31.79-51.08-36.89-51.08h-2.84C276.26,218.52,275.27,219.5,275.27,222.77Z"/><path class="cls-1" d="M9.93,110.68c0,1.72,2.94,4.25,5.68,4.25,5,0,9.6-12.52,12.74-17.05C32.6,91.74,44,87,44,82.3V80.88c0-3.27-1-4.26-4.26-4.26C28.75,76.62,9.93,98.65,9.93,110.68Z"/><path class="cls-4" d="M266.76,113.51c5.9-3.12,13.92-7.05,22.7-2.83-1.17-4.4-4.66-8.52-9.93-8.52C271.9,102.16,268.22,107.24,266.76,113.51Z"/></g></g></svg>